inDegrees=no
num_controls=7
num_derivatives=13
num_iterations=40
num_multipliers=7
num_parameters=0
num_slacks=7
num_states=26
objective=0.431935
objective_accelerations=0.054232
objective_balance=0.007114
objective_effort=0.033351
objective_height=0.336119
objective_ligament=0.001119
solver_duration=523.770911
status=Solve_Succeeded
success=true
DataType=double
version=3
OpenSimVersion=4.5
endheader
time	/jointset/ground_pelvis/pelvis_tilt/value	/jointset/ground_pelvis/pelvis_tx/value	/jointset/ground_pelvis/pelvis_ty/value	/jointset/hip_l/hip_flexion_l/value	/jointset/hip_l/hip_adduction_l/value	/jointset/hip_l/hip_rotation_l/value	/jointset/back/lumbar_extension/value	/jointset/patellofemoral_l/patellar_flexion_l/value	/jointset/knee_l/knee_flexion_l/value	/jointset/knee_l/knee_adduction_l/value	/jointset/knee_l/knee_rotation_l/value	/jointset/ankle_l/ankle_angle_l/value	/jointset/subtalar_l/subtalar_angle_l/value	/jointset/ground_pelvis/pelvis_tilt/speed	/jointset/ground_pelvis/pelvis_tx/speed	/jointset/ground_pelvis/pelvis_ty/speed	/jointset/hip_l/hip_flexion_l/speed	/jointset/hip_l/hip_adduction_l/speed	/jointset/hip_l/hip_rotation_l/speed	/jointset/back/lumbar_extension/speed	/jointset/patellofemoral_l/patellar_flexion_l/speed	/jointset/knee_l/knee_flexion_l/speed	/jointset/knee_l/knee_adduction_l/speed	/jointset/knee_l/knee_rotation_l/speed	/jointset/ankle_l/ankle_angle_l/speed	/jointset/subtalar_l/subtalar_angle_l/speed	/forceset/tau_hip_flexion_l	/forceset/tau_hip_adduction_l	/forceset/tau_hip_rotation_l	/forceset/tau_knee_flexion_l	/forceset/tau_ankle_angle_l	/forceset/tau_subtalar_angle_l	/forceset/tau_lumbar_extension	lambda_cid13_p0	lambda_cid13_p1	lambda_cid13_p2	lambda_cid13_p3	lambda_cid13_p4	lambda_cid13_p5	lambda_cid14_p0	/jointset/ground_pelvis/pelvis_tilt/accel	/jointset/ground_pelvis/pelvis_tx/accel	/jointset/ground_pelvis/pelvis_ty/accel	/jointset/hip_l/hip_flexion_l/accel	/jointset/hip_l/hip_adduction_l/accel	/jointset/hip_l/hip_rotation_l/accel	/jointset/back/lumbar_extension/accel	/jointset/patellofemoral_l/patellar_flexion_l/accel	/jointset/knee_l/knee_flexion_l/accel	/jointset/knee_l/knee_adduction_l/accel	/jointset/knee_l/knee_rotation_l/accel	/jointset/ankle_l/ankle_angle_l/accel	/jointset/subtalar_l/subtalar_angle_l/accel	gamma_cid13_p0	gamma_cid13_p1	gamma_cid13_p2	gamma_cid13_p3	gamma_cid13_p4	gamma_cid13_p5	gamma_cid14_p0
1.5	-0.3465511993244366	-0.03804538074889825	0.7557926336777586	1.214795619297277	-0.3041020524169351	0.02388189447282412	-0.343488699860364	0.8486877575758822	0.848687757575923	-0.1738222022777625	0.1647097850714996	0.1640119544903833	-0.01878624485173213	0.4550666753316877	0.1662833977634897	0.5396250944007824	-2.202686485721562	-0.01984899304152725	-0.704824101904398	0.5741942441771847	-2.159342222816164	-2.159342222816071	0.007151801810275656	-0.06005086234872258	-0.5343821037695824	-0.1094199225218016	-0.2044594353130788	0.06908263483990672	-0.02555737289740938	-0.2572921702995849	0.1100781708709801	-0.004327940887924643	0.2005762773177621	-4.147043675714239	2.21542358096467	-0.3097805204827396	-2.207739665130556	-609.4734462286899	-16.01886244244434	-18.47496894617711	0.6110615839116156	0.6194085413630965	-0.3903308627972233	-1.563812278798443	0.7276182139298383	-0.3706536678697384	1.869047434770404	-1.546822566366902	-1.546822566366908	0.131200705656759	-0.1568474304362888	-0.6153397841143905	0.7539826753525336	4.157312277231647e-07	3.243396912135796e-07	-2.829280032553272e-06	-3.251654759141184e-07	5.244413730708786e-07	9.656235139618802e-08	4.254035895441167e-07
1.51	-0.3419701323370027	-0.03635165635798686	0.7611682550604715	1.192692664174113	-0.3042654056052704	0.01681902398239208	-0.3376545533208776	0.8270192264348929	0.8270192264349093	-0.1737489699674358	0.1641009185539163	0.1586377558066054	-0.01984436956599383	0.4610828972425821	0.1724478710489831	0.5353848854663422	-2.217605027416509	-0.01281126938577157	-0.7076030518248663	0.5925583635863261	-2.17406739573662	-2.174067395736608	0.007433958272658159	-0.06174791497633652	-0.5403634321759923	-0.1021998779421089	-0.1978756986234367	0.06892510346287227	-0.02542780379562973	-0.2543991702431305	0.1117453868738753	-0.00492001632022248	0.1951073879212995	-3.368312483468717	2.167690365921615	-0.1096796851394015	-2.523375248569262	-604.7423937648609	-16.01893680434297	-19.80537720932368	0.5873659840178351	0.612859026675651	-0.4578934004347162	-1.410896463484978	0.6938034486245047	-0.209047675838073	1.808589173942579	-1.390966569237807	-1.39096656924987	-0.03240940094984455	-0.1793560646024563	-0.5754227452601974	0.7070597940657586	4.474112225495535e-07	4.49649663815657e-07	-2.955105220505879e-06	-3.293129136525339e-07	5.644420355214053e-07	1.985784480708754e-07	4.52728766303173e-07
1.52	-0.3373308104326085	-0.03459670877331404	0.7664980688555068	1.17044951936426	-0.3043579907556112	0.009732857588422603	-0.331639066591311	0.8052123231818331	0.80521232318182	-0.17367474259596	0.1634744371329395	0.1532065651634915	-0.02083008494550098	0.4667176587270925	0.1785280365157743	0.5304635768652165	-2.230724423057123	-0.005695385440961565	-0.7094832826134438	0.6104622821937428	-2.187016645231186	-2.187016645231255	0.007350814035886336	-0.06357384303110299	-0.5457804956366379	-0.09493805557088508	-0.1912919619337991	0.06876757208582937	-0.02529823469364299	-0.2515061701867064	0.1134126028767643	-0.005512091752531196	0.1896384985248332	-2.595801600316801	2.117271321997833	0.09516345669292915	-2.854655964835023	-600.1136379465974	-16.11522858702508	-21.13232985891942	0.5347694986347894	0.6025469776226304	-0.5265507961343066	-1.203983067931661	0.7432502717406735	-0.1909098414916174	1.777007274425445	-1.191637881188801	-1.191637881188797	0.05814056582585998	-0.1826225158668043	-0.5024867949615469	0.7623382336587466	4.920036342538531e-07	5.434598994414914e-07	-3.135999671075321e-06	-3.462063032149273e-07	6.191997753669392e-07	3.045770203684225e-07	4.859484895694968e-07
1.53	-0.3326370963952598	-0.03278148238535757	0.7717753156525547	1.148084264172643	-0.3043790977721536	0.002631214105923042	-0.3254471520578068	0.7832849418088907	0.7832849418088317	-0.173602330610613	0.1628297452348526	0.1477239998093288	-0.02174304545390197	0.4719471119993519	0.1844924408366532	0.5248743689676706	-2.241990111536212	0.001504596810353762	-0.7108424379598525	0.6278222785429927	-2.198121228787638	-2.198121228787664	0.007214128557525461	-0.06529935613715483	-0.550625738229226	-0.08762379453728129	-0.1844931837438237	0.06839932917886868	-0.02512365900548355	-0.2487371675235485	0.1151246167123471	-0.006266866646717583	0.1839442811268194	-1.81618019282063	2.14127101875296	0.2824248408324005	-3.095796066601506	-595.4581599482697	-16.13552660853141	-22.45302651026477	0.5053766232080968	0.5895885362094797	-0.5916723539603096	-1.037319186846226	0.7134216755189419	-0.1074734356209422	1.70074392055352	-1.019217821132597	-1.019217821126159	-0.03723935971295257	-0.157049921034276	-0.4595371277686969	0.7208173160311377	5.503154888909328e-07	6.038016645300682e-07	-3.37540521317515e-06	-3.766422665902971e-07	6.896369099446681e-07	4.14806973015258e-07	5.254311684997925e-07
1.54	-0.3278934191488673	-0.03090737167881469	0.7769933570571487	1.125616460606433	-0.3043271950714543	-0.004483831940910845	-0.3190845879397367	0.7612566447547353	0.7612566447546284	-0.1735288187310412	0.1621698913631108	0.1421961832019671	-0.02258189389640293	0.4767103005391101	0.1903049002330558	0.5186224983743336	-2.251234097973229	0.008906558009358464	-0.7121637954824793	0.6445921991074053	-2.207199781474453	-2.207199781474438	0.007570792877329078	-0.06660623776561465	-0.5548307462762627	-0.08011564239087392	-0.1776944055538425	0.0680310862719057	-0.02494908331715103	-0.2459681648604129	0.1168366305479266	-0.007021641540905124	0.17825006372881	-1.041012622123643	2.161353270490209	0.4756786521551757	-3.364203643044759	-590.8847185489921	-16.26401414858386	-23.76534884035954	0.441516552134533	0.5721579927273586	-0.6590833352925075	-0.7996426595173063	0.7836460612785231	-0.1833502767352714	1.658992117457958	-0.7864317072615835	-0.7864317072615814	0.1568105254587268	-0.09889622034842271	-0.3744398858512444	0.8011164562194689	6.091274000773017e-07	7.066159606479352e-07	-3.654639124145311e-06	-4.064373944841149e-07	7.642162751393885e-07	5.398226306709185e-07	5.71754443782497e-07
1.55	-0.3231042647803586	-0.02897594175255062	0.7821456546725264	1.103065869065568	-0.3042013327044094	-0.01160844220931125	-0.3125577282868358	0.7391470409355929	0.7391470409354735	-0.1734532775480254	0.1614971827938393	0.1366291772077915	-0.02334596008375867	0.481050404116008	0.1959508407917337	0.5117316137224722	-2.258564396271086	0.01621972481420517	-0.7124436845346982	0.6606467539641245	-2.21442049918091	-2.214420499180922	0.007314774210243414	-0.06806404806310991	-0.5584808355909898	-0.07275680457034224	-0.1707264732535246	0.06725788203235858	-0.0246607555189325	-0.2434958354709271	0.1187920392809554	-0.007976434578983466	0.172395574812082	-0.202775958363189	2.262392267463973	0.6501613738071591	-3.5885739401982	-586.3996727555499	-16.30708770829732	-25.06770761209045	0.4197897346835364	0.5561851259035165	-0.7197251464290455	-0.6516716807293961	0.6987409288623614	0.09749642419005355	1.558740543450377	-0.6449505409942811	-0.6449505409983757	-0.1502559561915502	-0.1876928913117833	-0.3468698635977081	0.6947238381726907	6.68515463374808e-07	8.583659990386776e-07	-3.979762242726938e-06	-4.354941684535359e-07	8.43568210392816e-07	6.818739919237026e-07	6.259592757321068e-07
1.56	-0.3182738028812534	-0.02698897781300683	0.7872259166181266	1.080451584888552	-0.30400362088157	-0.01872629043949707	-0.3058743124106357	0.7169742181916564	0.7169742181915255	-0.1733869861303261	0.1608062022302456	0.131028355038605	-0.02403814661426852	0.4849718066615883	0.2014117028890002	0.5042153644188071	-2.263972625201303	0.02327644917004986	-0.7108113878407082	0.6759034437677153	-2.219843566433626	-2.219843566433667	0.005720839807183505	-0.07026063663508535	-0.5615939812782862	-0.06573971102169854	-0.1637585409532078	0.06648467779279364	-0.02437242772047785	-0.2410235060814799	0.1207474480139726	-0.00893122761708616	0.1665410858953563	0.6337414637698884	2.358105212631999	0.8319234546885032	-3.855122587549769	-581.9625762801994	-16.47098827057227	-26.35922274169943	0.3577763458709568	0.5351423004450889	-0.7841562656532522	-0.4152287859895573	0.7323575714780949	0.1990868725064987	1.499419106832216	-0.4269016165136907	-0.4269016165138152	-0.1107726217361506	-0.2466518752444963	-0.2670511603650676	0.7327676018418955	6.110662984425757e-07	1.172151247258927e-06	-3.594224390154868e-06	-3.500259779573315e-07	8.135884041529326e-07	7.989330392875413e-07	5.944934953623934e-07
1.57	-0.31340650399805	-0.02494845135275063	0.7922279256954076	1.057793553517379	-0.3037355736837944	-0.02582454876553665	-0.2990423605208214	0.694757392947786	0.6947573929477507	-0.1733373052105083	0.160093408743869	0.1253995591772842	-0.02466054644580678	0.4883956220005141	0.2066502451020487	0.4960867862880869	-2.267259248201883	0.03033808150374284	-0.7088189811904042	0.6903406568302555	-2.223151433576909	-2.22315143357701	0.004272511982159513	-0.07222978209758578	-0.5640530447642894	-0.05873618148795867	-0.1566393554538753	0.06549795064494571	-0.02410882718509024	-0.2388119226539109	0.1228256372004808	-0.01005083183441011	0.1605313928728889	1.491024674114005	2.525450992208192	0.9980471394047074	-4.044839650541874	-577.6847655151442	-16.57347259492633	-27.63936804949912	0.3208595477028665	0.5117106189038502	-0.8420480997656233	-0.2291807369117287	0.6938597257004818	0.2029157674144805	1.393930801193128	-0.2272971814185117	-0.2272971814275602	-0.1530532731325583	-0.1614579069727782	-0.2184859753237288	0.6846289813474566	4.075705982231713e-07	1.688480507766058e-06	-2.320360323640686e-06	-1.214015818790971e-07	6.46943921046412e-07	8.847516942901986e-07	4.559394495935273e-07
1.58	-0.3085077318775123	-0.02285683938293014	0.7971456810887849	1.035113895580221	-0.3033967514304163	-0.03290216338386074	-0.2920704248213395	0.6725185754488181	0.6725185754489359	-0.1733003456508515	0.1593630413979517	0.1197495422745825	-0.02521281431156611	0.4912664541314759	0.2116288048018594	0.4873646276380272	-2.268297938395204	0.03743146029289809	-0.7066826462952357	0.7039002057019368	-2.224242017447508	-2.224242017447671	0.003176567747237043	-0.07377540856890681	-0.5658381895545233	-0.05171331786592046	-0.1495201699546122	0.06451122349698853	-0.02384522664856056	-0.2366003392265373	0.1249038263869386	-0.01117043605186164	0.1545216998503898	2.343427332654164	2.690308502332421	1.168386728781237	-4.248587448552909	-573.4908575928986	-16.75486441356102	-28.89491489558835	0.2471797042780754	0.4831457977975517	-0.9028723695211539	0.03435777546214738	0.738706862570441	0.2278725214793548	1.323886268660395	0.01655503802283054	0.01655503802283086	-0.0402959037158645	-0.1619480770086902	-0.1322674212111213	0.7366344195016075	2.702966843256961e-07	2.055629232672207e-06	-1.491193939674379e-06	3.39089677127118e-08	5.368530763499255e-07	9.516949855530448e-07	3.6734485327823e-07
1.59	-0.3035831099806375	-0.02071684628733039	0.8019733197137326	1.012435409218031	-0.3029865733676671	-0.03995894114481919	-0.2849675752555935	0.6502803926777996	0.6502803926779532	-0.1732713809567695	0.1586202004589071	0.1140852161362788	-0.02569440325571038	0.493556207583053	0.2163147009889075	0.4780721214465424	-2.266992298843455	0.04462848261484151	-0.7047013601174024	0.7164901091507093	-2.222991033257028	-2.222991033257216	0.002740362603364625	-0.07468393543346004	-0.5669029687231301	-0.04457604766058837	-0.14220753062347	0.0632995204246791	-0.02364794137354991	-0.2346984772562642	0.1272876913854173	-0.01244705737304587	0.1483327884019141	3.273774492193755	2.913221844169655	1.325459652341201	-4.430292262321492	-569.4954674286944	-16.88652355437376	-30.1127871837475	0.2046356140527306	0.4530691269008794	-0.9559894007657124	0.2397504741943322	0.7137694184836627	0.1793630157748752	1.199602638380157	0.2398288014725127	0.2398288014687008	-0.0263773926992729	-0.0387076874389984	-0.07494040929710942	0.7063039000700805	2.228951947222625e-07	2.220318659262747e-06	-1.26554583916587e-06	8.972215421580601e-08	5.035135980670526e-07	9.930217117404346e-07	3.465523669356293e-07
